<?xml version="1.0" encoding="utf-8"?>
<!-- Generator: Adobe Illustrator 22.1.0, SVG Export Plug-In . SVG Version: 6.00 Build 0)  -->
<svg version="1.1" id="Layer_1" xmlns="http://www.w3.org/2000/svg" xmlns:xlink="http://www.w3.org/1999/xlink" x="0px" y="0px"
	 viewBox="0 0 296 24.2" style="enable-background:new 0 0 296 24.2;" xml:space="preserve">
<style type="text/css">
	.st0{enable-background:new    ;}
	.st1{fill:#FFFFFF;}
</style>
<g>
	<g class="st0">
		<path class="st1" d="M49.5,3.4v4.2h3.8v2h-3.8v7.8c0,1.8,0.5,2.8,2,2.8c0.7,0,1.2-0.1,1.5-0.2l0.1,2c-0.5,0.2-1.3,0.4-2.3,0.4
			c-1.2,0-2.2-0.4-2.8-1.1c-0.8-0.8-1-2.1-1-3.8v-8h-2.2v-2H47V4.1L49.5,3.4z"/>
		<path class="st1" d="M64.3,22.1L64,20.2l0,0c-0.8,1.1-2.4,2.2-4.4,2.2c-2.9,0-4.4-2.1-4.4-4.2c0-3.5,3.1-5.4,8.7-5.4v-0.3
			c0-1.2-0.3-3.4-3.3-3.4c-1.3,0-2.8,0.4-3.8,1.1l-0.6-1.7c1.2-0.8,2.9-1.3,4.8-1.3c4.4,0,5.5,3,5.5,5.9v5.4c0,1.3,0.1,2.5,0.2,3.5
			h-2.4V22.1z M63.9,14.6c-2.9-0.1-6.1,0.5-6.1,3.3c0,1.7,1.1,2.5,2.5,2.5c1.9,0,3.1-1.2,3.5-2.4c0.1-0.3,0.2-0.6,0.2-0.8L63.9,14.6
			L63.9,14.6z"/>
		<path class="st1" d="M70.3,19.4c0.8,0.5,2.2,1,3.5,1c1.9,0,2.8-1,2.8-2.2c0-1.3-0.8-2-2.7-2.7c-2.6-0.9-3.8-2.4-3.8-4.1
			c0-2.3,1.9-4.3,5-4.3c1.5,0,2.8,0.4,3.6,0.9L78,10c-0.6-0.4-1.6-0.8-3-0.8c-1.6,0-2.4,0.9-2.4,2c0,1.2,0.9,1.7,2.8,2.5
			c2.5,1,3.8,2.2,3.8,4.4c0,2.5-2,4.3-5.4,4.3c-1.6,0-3.1-0.4-4.1-1L70.3,19.4z"/>
		<path class="st1" d="M85.7,3.4v4.2h3.8v2h-3.8v7.8c0,1.8,0.5,2.8,2,2.8c0.7,0,1.2-0.1,1.5-0.2l0.1,2c-0.5,0.2-1.3,0.4-2.3,0.4
			c-1.2,0-2.2-0.4-2.8-1.1c-0.8-0.8-1-2.1-1-3.8v-8H81v-2h2.2V4.1L85.7,3.4z"/>
		<path class="st1" d="M95.4,3.5c0,0.9-0.6,1.6-1.7,1.6c-0.9,0-1.6-0.7-1.6-1.6s0.7-1.6,1.6-1.6C94.8,1.8,95.4,2.5,95.4,3.5z
			 M92.5,22.1V7.5h2.6V22h-2.6V22.1z"/>
		<path class="st1" d="M109.9,21.5c-0.7,0.4-2.2,0.8-4.2,0.8c-4.4,0-7.2-3-7.2-7.4c0-4.5,3.1-7.7,7.8-7.7c1.6,0,2.9,0.4,3.7,0.8
			l-0.6,2c-0.6-0.4-1.6-0.7-3.1-0.7c-3.3,0-5.1,2.5-5.1,5.5c0,3.4,2.2,5.4,5,5.4c1.5,0,2.5-0.4,3.2-0.7L109.9,21.5z"/>
		<path class="st1" d="M122.7,15.7l-2.1,6.4h-2.7l6.9-20.2h3.1l6.9,20.2H132l-2.2-6.4C129.8,15.7,122.7,15.7,122.7,15.7z
			 M129.3,13.7l-2-5.8c-0.5-1.3-0.8-2.5-1.1-3.7h-0.1c-0.3,1.2-0.6,2.4-1,3.7l-2,5.8H129.3z"/>
		<path class="st1" d="M137.6,11.5c0-1.5,0-2.7-0.1-3.9h2.3l0.1,2.4h0.1c0.7-1.4,2.4-2.7,4.8-2.7c2,0,5.1,1.2,5.1,6.2v8.7h-2.6v-8.4
			c0-2.3-0.9-4.3-3.4-4.3c-1.7,0-3.1,1.2-3.5,2.7c-0.1,0.3-0.2,0.8-0.2,1.2v8.7h-2.6L137.6,11.5L137.6,11.5z"/>
		<path class="st1" d="M157.2,3.5c0,0.9-0.6,1.6-1.7,1.6c-0.9,0-1.6-0.7-1.6-1.6s0.7-1.6,1.6-1.6C156.5,1.8,157.2,2.5,157.2,3.5z
			 M154.2,22.1V7.5h2.6V22h-2.6V22.1z"/>
		<path class="st1" d="M161.2,11.5c0-1.5,0-2.7-0.1-3.9h2.3l0.1,2.3h0.1c0.8-1.4,2.2-2.7,4.6-2.7c2,0,3.5,1.2,4.1,2.9h0.1
			c0.5-0.8,1-1.4,1.6-1.9c0.9-0.7,1.8-1,3.2-1c1.9,0,4.8,1.3,4.8,6.3V22h-2.6v-8.2c0-2.8-1-4.5-3.2-4.5c-1.5,0-2.7,1.1-3.1,2.4
			c-0.1,0.4-0.2,0.8-0.2,1.3v9h-2.6v-8.7c0-2.3-1-4-3-4c-1.7,0-2.8,1.3-3.3,2.6c-0.2,0.4-0.2,0.8-0.2,1.3V22h-2.6L161.2,11.5
			L161.2,11.5z"/>
		<path class="st1" d="M194.3,22.1l-0.2-1.8H194c-0.8,1.1-2.4,2.2-4.4,2.2c-2.9,0-4.4-2.1-4.4-4.2c0-3.5,3.1-5.4,8.7-5.4v-0.3
			c0-1.2-0.3-3.4-3.3-3.4c-1.3,0-2.8,0.4-3.8,1.1l-0.6-1.7c1.2-0.8,2.9-1.3,4.8-1.3c4.4,0,5.5,3,5.5,5.9v5.4c0,1.3,0.1,2.5,0.2,3.5
			C196.7,22.1,194.3,22.1,194.3,22.1z M193.9,14.6c-2.9-0.1-6.2,0.5-6.2,3.3c0,1.7,1.1,2.5,2.5,2.5c1.9,0,3.1-1.2,3.5-2.4
			c0.1-0.3,0.2-0.6,0.2-0.8V14.6z"/>
		<path class="st1" d="M200.7,0.8h2.6v21.3h-2.6V0.8z"/>
		<path class="st1" d="M213.9,18.9c1.2,0.7,2.9,1.3,4.7,1.3c2.7,0,4.2-1.4,4.2-3.4c0-1.9-1.1-3-3.8-4c-3.3-1.2-5.3-2.9-5.3-5.7
			c0-3.1,2.6-5.5,6.5-5.5c2.1,0,3.6,0.5,4.5,1L224,4.7c-0.7-0.4-2-1-3.8-1c-2.8,0-3.8,1.7-3.8,3c0,1.9,1.2,2.8,4,3.9
			c3.4,1.3,5.2,3,5.2,5.9c0,3.1-2.3,5.8-7.1,5.8c-2,0-4.1-0.6-5.2-1.3L213.9,18.9z"/>
		<path class="st1" d="M230.6,15.3c0.1,3.6,2.3,5,5,5c1.9,0,3-0.3,4-0.8l0.5,1.9c-0.9,0.4-2.5,0.9-4.8,0.9c-4.5,0-7.1-2.9-7.1-7.3
			s2.6-7.8,6.8-7.8c4.7,0,6,4.2,6,6.8c0,0.5-0.1,1-0.1,1.2h-10.3V15.3z M238.3,13.4c0-1.7-0.7-4.3-3.7-4.3c-2.7,0-3.8,2.5-4,4.3
			H238.3z"/>
		<path class="st1" d="M252.2,22.1l-0.2-1.8h-0.1c-0.8,1.1-2.4,2.2-4.4,2.2c-2.9,0-4.4-2.1-4.4-4.2c0-3.5,3.1-5.4,8.7-5.4v-0.3
			c0-1.2-0.3-3.4-3.3-3.4c-1.4,0-2.8,0.4-3.8,1.1l-0.6-1.7c1.2-0.8,2.9-1.3,4.8-1.3c4.4,0,5.5,3,5.5,5.9v5.4c0,1.3,0.1,2.5,0.2,3.5
			C254.6,22.1,252.2,22.1,252.2,22.1z M251.8,14.6c-2.9-0.1-6.1,0.5-6.1,3.3c0,1.7,1.1,2.5,2.5,2.5c1.9,0,3.1-1.2,3.5-2.4
			c0.1-0.3,0.2-0.6,0.2-0.8L251.8,14.6L251.8,14.6z"/>
		<path class="st1" d="M258.6,12.1c0-1.7,0-3.2-0.1-4.5h2.3l0.1,2.8h0.1c0.7-1.9,2.2-3.2,4-3.2c0.3,0,0.5,0,0.8,0.1v2.5
			c-0.3-0.1-0.5-0.1-0.9-0.1c-1.9,0-3.2,1.4-3.5,3.4c-0.1,0.4-0.1,0.8-0.1,1.2V22h-2.6L258.6,12.1L258.6,12.1z"/>
		<path class="st1" d="M278.5,21.5c-0.7,0.4-2.2,0.8-4.2,0.8c-4.4,0-7.2-3-7.2-7.4c0-4.5,3.1-7.7,7.8-7.7c1.6,0,2.9,0.4,3.7,0.8
			l-0.6,2c-0.6-0.4-1.6-0.7-3.1-0.7c-3.3,0-5.1,2.5-5.1,5.5c0,3.4,2.2,5.4,5,5.4c1.5,0,2.5-0.4,3.2-0.7L278.5,21.5z"/>
		<path class="st1" d="M281.6,0.8h2.6v9.1h0.1c0.4-0.8,1.1-1.4,1.9-1.9s1.7-0.8,2.7-0.8c2,0,5.1,1.2,5.1,6.2V22h-2.6v-8.3
			c0-2.3-0.9-4.3-3.4-4.3c-1.7,0-3.1,1.2-3.5,2.6c-0.2,0.4-0.2,0.8-0.2,1.3v8.8h-2.6V0.8H281.6z"/>
	</g>
	<g class="st0">
		<path class="st1" d="M19.1,22.1c-1.4,0.6-3.9,1.6-6.6,1.8C8.8,24.3,6.1,23.6,4,22c-2-1.5-3.3-4.1-3.6-7C-0.2,8.3,4.3,4,10.9,3.3
			c2.6-0.3,4.6,0,5.7,0.4L16,7.5c-1.2-0.4-2.6-0.6-4.8-0.4c-3.8,0.4-6.4,2.8-6,7.2c0.4,4.1,3.3,6.3,7,5.9c1-0.1,1.9-0.3,2.2-0.5
			L14,15.5l-3.1,0.3l-0.4-3.5l7.5-0.8L19.1,22.1z"/>
		<path class="st1" d="M25.3,2l2.1,20.1l-4.6,0.5L20.7,2.5L25.3,2z"/>
		<path class="st1" d="M29.2,1.6l12.3-1.3L41.9,4l-7.7,0.8l0.5,4.6l7.2-0.7l0.4,3.7L35,13.2l0.8,8.1l-4.6,0.5L29.2,1.6z"/>
	</g>
</g>
</svg>
