<?xml version="1.0" encoding="utf-8"?>
<!-- Generator: Adobe Illustrator 22.1.0, SVG Export Plug-In . SVG Version: 6.00 Build 0)  -->
<svg version="1.1" id="Layer_1" xmlns="http://www.w3.org/2000/svg" xmlns:xlink="http://www.w3.org/1999/xlink" x="0px" y="0px"
	 viewBox="0 0 296 25" style="enable-background:new 0 0 296 25;" xml:space="preserve">
<style type="text/css">
	.st0{enable-background:new    ;}
	.st1{fill:#5F9EA0;}
	.st2{fill:#548E90;}
	.st3{opacity:0.33;}
	.st4{fill:url(#SVGID_1_);}
	.st5{fill:url(#SVGID_2_);}
	.st6{fill:url(#SVGID_3_);}
	.st7{fill:url(#SVGID_4_);}
	.st8{fill:url(#SVGID_5_);}
	.st9{fill:url(#SVGID_6_);}
	.st10{fill:url(#SVGID_7_);}
	.st11{fill:url(#SVGID_8_);}
	.st12{fill:url(#SVGID_9_);}
	.st13{fill:url(#SVGID_10_);}
	.st14{fill:url(#SVGID_11_);}
	.st15{fill:url(#SVGID_12_);}
	.st16{fill:url(#SVGID_13_);}
	.st17{fill:url(#SVGID_14_);}
	.st18{fill:url(#SVGID_15_);}
	.st19{fill:url(#SVGID_16_);}
	.st20{fill:url(#SVGID_17_);}
	.st21{fill:url(#SVGID_18_);}
	.st22{fill:url(#SVGID_19_);}
	.st23{fill:url(#SVGID_20_);}
	.st24{fill:url(#SVGID_21_);}
</style>
<g>
	<g class="st0">
		<g>
			<path class="st1" d="M50.8,22.8c-1.2,0-2.3-0.4-2.9-1.1c-0.9-0.9-1-2.4-1-3.9V9.9h-2.2V7.6h2.2V4.3l2.8-0.8v4.2h3.8V10h-3.8v7.7
				c0,1.9,0.6,2.7,1.9,2.7c0.8,0,1.2-0.1,1.5-0.2l0.2-0.1l0.1,2.3l-0.1,0C52.8,22.5,52,22.8,50.8,22.8z"/>
			<path class="st2" d="M49.5,3.6v4.2h3.8v2h-3.8v7.8c0,1.8,0.5,2.8,2,2.8c0.7,0,1.2-0.1,1.5-0.2l0.1,2c-0.5,0.2-1.3,0.4-2.3,0.4
				c-1.2,0-2.2-0.4-2.8-1.1c-0.8-0.8-1-2.1-1-3.8v-8h-2.2v-2H47V4.4L49.5,3.6 M49.8,3.3l-0.3,0.1l-2.5,0.7l-0.2,0.1v0.2v3.1h-2h-0.2
				v0.2v2V10h0.2h2v7.8c0,1.5,0.1,3,1.1,4c0.6,0.8,1.7,1.2,3,1.2c1.2,0,2-0.3,2.4-0.4l0.2-0.1l0-0.2l-0.1-2l0-0.3L52.9,20
				c-0.2,0.1-0.7,0.2-1.4,0.2c-1.2,0-1.8-0.7-1.8-2.6v-7.6h3.5h0.2V9.8v-2V7.6h-0.2h-3.5v-4V3.3L49.8,3.3z"/>
		</g>
		<g>
			<path class="st1" d="M59.6,22.8c-3,0-4.5-2.2-4.5-4.3c0-3.5,3.1-5.5,8.7-5.5v-0.2c0-2.2-1.1-3.3-3.2-3.3c-1.3,0-2.8,0.4-3.7,1.1
				l-0.1,0.1L56,8.7l0.1-0.1c1.3-0.9,3-1.3,4.9-1.3c4.6,0,5.6,3.3,5.6,6v5.4c0,1.3,0.1,2.6,0.2,3.5l0,0.1h-2.5v-0.1l-0.1,0.1
				l-0.3-1.6C63.1,21.7,61.6,22.8,59.6,22.8z M63.3,15c-2.5,0-5.4,0.6-5.4,3.2c0,1.5,0.9,2.4,2.4,2.4c1.9,0,3-1.2,3.4-2.3
				c0.1-0.3,0.2-0.6,0.2-0.8L63.8,15C63.6,15,63.5,15,63.3,15z"/>
			<path class="st2" d="M61,7.5c4.4,0,5.5,3,5.5,5.9v5.4c0,1.3,0.1,2.5,0.2,3.5h-2.4c0,0,0,0.1,0,0.1L64,20.5
				c-0.8,1.1-2.4,2.2-4.4,2.2c-2.9,0-4.4-2.1-4.4-4.2c0-3.5,3.1-5.4,8.7-5.4v-0.3c0-1.2-0.3-3.4-3.3-3.4c-1.3,0-2.8,0.4-3.8,1.1
				l-0.6-1.7C57.4,8,59.1,7.5,61,7.5 M60.3,20.7c1.9,0,3.1-1.2,3.5-2.4c0.1-0.3,0.2-0.6,0.2-0.8l-0.1-2.6c-0.2,0-0.4,0-0.6,0
				c-2.7,0-5.5,0.7-5.5,3.3C57.8,19.9,58.9,20.7,60.3,20.7 M61,7.2c-1.9,0-3.6,0.5-4.9,1.3l-0.2,0.1L56,8.8l0.6,1.7l0.1,0.3l0.3-0.2
				c0.9-0.6,2.4-1.1,3.7-1.1c2,0,3,1.1,3,3.1v0.1c-5.6,0.1-8.7,2.1-8.7,5.6c0,2.2,1.6,4.5,4.7,4.5c1.9,0,3.4-0.9,4.2-1.9l0.2,1.4
				l0.2,0v0.1h2.4H67l0-0.3c-0.1-0.9-0.2-2.2-0.2-3.5v-5.4C66.8,10.5,65.8,7.2,61,7.2L61,7.2z M60.3,20.4c-1.4,0-2.2-0.8-2.2-2.2
				c0-2.5,2.9-3.1,5.3-3.1c0.1,0,0.2,0,0.3,0l0.1,2.4c0,0.1-0.1,0.4-0.2,0.7C63.2,19.2,62.2,20.4,60.3,20.4L60.3,20.4z"/>
		</g>
		<g>
			<path class="st1" d="M73.8,22.8c-1.5,0-3.1-0.4-4.2-1l-0.1,0l0.7-2.2l0.1,0.1c0.8,0.5,2.1,1,3.4,1c2,0,2.7-1.1,2.7-2.1
				c0-1.2-0.7-1.9-2.6-2.6C71.4,15,70,13.5,70,11.6c0-2.2,1.8-4.4,5.1-4.4c1.4,0,2.7,0.3,3.7,0.9l0.1,0.1l-0.8,2.2l-0.1-0.1
				c-0.4-0.3-1.4-0.8-2.9-0.8c-1.4,0-2.3,0.7-2.3,1.9c0,1.1,0.8,1.6,2.7,2.4c2.8,1.1,3.9,2.4,3.9,4.5C79.3,21,77.2,22.8,73.8,22.8z"
				/>
			<path class="st2" d="M75.1,7.4c1.5,0,2.8,0.4,3.6,0.9l-0.7,2c-0.6-0.4-1.6-0.8-3-0.8c-1.6,0-2.4,0.9-2.4,2c0,1.2,0.9,1.7,2.8,2.5
				c2.5,1,3.8,2.2,3.8,4.4c0,2.5-2,4.3-5.4,4.3c-1.6,0-3.1-0.4-4.1-1l0.6-2c0.8,0.5,2.2,1,3.5,1c1.9,0,2.8-1,2.8-2.2
				c0-1.3-0.8-2-2.7-2.7c-2.6-0.9-3.8-2.4-3.8-4.1C70.1,9.4,72,7.4,75.1,7.4 M75.1,7.1c-3.4,0-5.2,2.3-5.2,4.5c0,1.9,1.4,3.5,4,4.3
				c1.9,0.7,2.5,1.3,2.5,2.5c0,1.2-1,1.9-2.6,1.9c-1.3,0-2.6-0.5-3.4-1l-0.3-0.2l-0.1,0.3l-0.6,2l-0.1,0.2l0.2,0.1
				c1.1,0.6,2.7,1,4.2,1c3.4,0,5.7-1.8,5.7-4.5c0-2.2-1.1-3.5-4-4.6c-2-0.8-2.6-1.3-2.6-2.3c0-1.1,0.8-1.8,2.2-1.8
				c1.5,0,2.4,0.5,2.9,0.8l0.3,0.2l0.1-0.3l0.7-2L79,8.1L78.8,8C77.9,7.5,76.5,7.1,75.1,7.1L75.1,7.1z"/>
		</g>
		<g>
			<path class="st1" d="M87,22.8c-1.2,0-2.3-0.4-2.9-1.1c-0.9-0.9-1-2.4-1-3.9V9.9h-2.2V7.6h2.2V4.3l2.8-0.8v4.2h3.8V10h-3.8v7.7
				c0,1.9,0.6,2.7,1.9,2.7c0.8,0,1.2-0.1,1.5-0.2l0.2-0.1l0.1,2.3l-0.1,0C89,22.5,88.2,22.8,87,22.8z"/>
			<path class="st2" d="M85.7,3.6v4.2h3.8v2h-3.8v7.8c0,1.8,0.5,2.8,2,2.8c0.7,0,1.2-0.1,1.5-0.2l0.1,2c-0.5,0.2-1.3,0.4-2.3,0.4
				c-1.2,0-2.2-0.4-2.8-1.1c-0.8-0.8-1-2.1-1-3.8v-8H81v-2h2.2V4.4L85.7,3.6 M85.9,3.3l-0.3,0.1l-2.5,0.7l-0.2,0.1v0.2v3.1H81h-0.2
				v0.2v2V10H81h1.9v7.8c0,1.5,0.1,3,1.1,4c0.6,0.8,1.7,1.2,3,1.2c1.2,0,2-0.3,2.4-0.4l0.2-0.1l0-0.2l-0.1-2l0-0.3L89.1,20
				c-0.2,0.1-0.7,0.2-1.4,0.2c-1.2,0-1.8-0.7-1.8-2.6v-7.6h3.6h0.2V9.8v-2V7.6h-0.2h-3.6v-4V3.3L85.9,3.3z"/>
		</g>
		<g>
			<path class="st1" d="M92.5,22.4L92.5,22.4l-0.1,0V7.6h2.9v14.8H92.5z M93.7,5.5c-1,0-1.7-0.8-1.7-1.7S92.7,2,93.7,2
				c0.1,0,0.1,0,0.2,0c1,0,1.6,0.7,1.6,1.7C95.5,4.8,94.8,5.5,93.7,5.5z"/>
			<path class="st2" d="M93.9,2.1c1,0,1.5,0.7,1.5,1.6c0,0.9-0.6,1.6-1.7,1.6c-0.9,0-1.6-0.7-1.6-1.6s0.7-1.6,1.6-1.6
				C93.8,2.1,93.8,2.1,93.9,2.1 M95.1,7.8v14.5h-2.6V7.8H95.1 M92.5,22.2v0.1V22.2 M93.9,1.9c-0.1,0-0.1,0-0.2,0c0,0,0,0,0,0
				c-1,0-1.8,0.8-1.8,1.8c0,1,0.8,1.9,1.8,1.9c1.2,0,2-0.7,2-1.9C95.7,2.6,95,1.9,93.9,1.9L93.9,1.9z M95.3,7.5h-0.2h-2.6h-0.2v0.2
				v14.5v0.2h0.2h2.6h0.2v-0.2V7.8V7.5L95.3,7.5z"/>
		</g>
		<g>
			<path class="st1" d="M105.7,22.7c-4.4,0-7.3-3-7.3-7.5c0-4.6,3.3-7.8,7.9-7.8c1.9,0,3.3,0.6,3.8,0.8l0.1,0l-0.7,2.3l-0.1-0.1
				c-0.5-0.3-1.4-0.7-3-0.7c-3.4,0-5,2.7-5,5.4c0,3.2,2,5.3,4.9,5.3c1.4,0,2.4-0.4,3.2-0.7l0.1-0.1l0.6,2.2l-0.1,0
				C109.3,22.3,107.8,22.7,105.7,22.7z"/>
			<path class="st2" d="M106.3,7.5c1.6,0,2.9,0.4,3.7,0.8l-0.6,2c-0.6-0.4-1.6-0.7-3.1-0.7c-3.3,0-5.1,2.5-5.1,5.5
				c0,3.4,2.2,5.4,5,5.4c1.5,0,2.5-0.4,3.2-0.7l0.5,2c-0.7,0.4-2.2,0.8-4.2,0.8c-4.4,0-7.2-3-7.2-7.4C98.5,10.6,101.6,7.5,106.3,7.5
				 M106.3,7.2c-4.7,0-8.1,3.3-8.1,7.9c0,4.6,3,7.6,7.4,7.6c2.1,0,3.6-0.4,4.3-0.8l0.2-0.1l0-0.2l-0.5-2l-0.1-0.3l-0.3,0.1
				c-0.8,0.3-1.7,0.7-3.1,0.7c-2.8,0-4.8-2.1-4.8-5.2c0-2.6,1.5-5.2,4.9-5.2c1.6,0,2.5,0.4,3,0.7l0.3,0.2l0.1-0.3l0.6-2l0.1-0.2
				L110.1,8C109.6,7.8,108.2,7.2,106.3,7.2L106.3,7.2z"/>
		</g>
		<g>
			<path class="st1" d="M131.9,22.5l-2.2-6.4h-6.9l-2.1,6.4h-3l7-20.4h3.3l7,20.4H131.9z M129.1,13.8l-1.9-5.6
				c-0.5-1.2-0.8-2.3-1-3.4c-0.3,1.1-0.6,2.2-0.9,3.4l-1.9,5.6H129.1z"/>
			<path class="st2" d="M127.9,2.1l6.9,20.2H132l-2.2-6.4h-7.1l-2.1,6.4h-2.7l6.9-20.2H127.9 M123.1,13.9h6.2l-2-5.8
				c-0.5-1.3-0.8-2.5-1.1-3.7h-0.1c-0.3,1.2-0.6,2.4-1,3.7L123.1,13.9 M128.1,1.9h-0.2h-3.1h-0.2l-0.1,0.2l-6.9,20.2l-0.1,0.3h0.3
				h2.7h0.2l0.1-0.2l2-6.2h6.7l2.1,6.2l0.1,0.2h0.2h2.8h0.3l-0.1-0.3l-6.9-20.2L128.1,1.9L128.1,1.9z M123.5,13.7l1.9-5.5
				c0.3-1,0.6-2,0.8-3c0.2,0.9,0.5,1.9,0.9,3l1.9,5.5H123.5L123.5,13.7z"/>
		</g>
		<g>
			<path class="st1" d="M147.2,22.6V14c0-1.6-0.4-4.2-3.3-4.2c-1.6,0-3,1.1-3.4,2.6c-0.1,0.3-0.2,0.8-0.2,1.2v8.8h-2.9V11.8
				c0-1.5,0-2.7-0.1-3.9l0-0.1h2.6L140,10c0.7-1.2,2.3-2.5,4.8-2.5c0.9,0,5.2,0.3,5.2,6.3v8.8H147.2z"/>
			<path class="st2" d="M144.8,7.5c2,0,5.1,1.2,5.1,6.2v8.7h-2.6v-8.4c0-2.3-0.9-4.3-3.4-4.3c-1.7,0-3.1,1.2-3.5,2.7
				c-0.1,0.3-0.2,0.8-0.2,1.2v8.7h-2.6l0-10.6c0-1.5,0-2.7-0.1-3.9h2.3l0.1,2.4h0.1C140.7,8.9,142.4,7.5,144.8,7.5 M144.8,7.3
				c-2.3,0-3.9,1.1-4.7,2.3L140,7.8l0-0.2h-0.2h-2.3h-0.3l0,0.3c0.1,1.2,0.1,2.4,0.1,3.9l0,10.6v0.2h0.2h2.6h0.2v-0.2v-8.7
				c0-0.4,0.1-0.8,0.2-1.1c0.4-1.5,1.8-2.5,3.3-2.5c2.7,0,3.1,2.5,3.1,4.1v8.4v0.2h0.2h2.6h0.2v-0.2v-8.7
				C150.2,7.6,145.7,7.3,144.8,7.3L144.8,7.3z"/>
		</g>
		<g>
			<path class="st1" d="M154.2,22.4L154.2,22.4l-0.1,0V7.6h2.8v14.8H154.2z M155.5,5.5c-1,0-1.7-0.8-1.7-1.7s0.8-1.7,1.7-1.7
				c0.1,0,0.1,0,0.2,0c1,0,1.6,0.7,1.6,1.7C157.3,4.8,156.6,5.5,155.5,5.5z"/>
			<path class="st2" d="M155.7,2.1c0.9,0,1.5,0.7,1.5,1.6c0,0.9-0.6,1.6-1.7,1.6c-0.9,0-1.6-0.7-1.6-1.6s0.7-1.6,1.6-1.6
				C155.6,2.1,155.6,2.1,155.7,2.1 M156.8,7.8v14.5h-2.6V7.8H156.8 M154.2,22.2v0.1V22.2 M155.7,1.9c-0.1,0-0.1,0-0.2,0c0,0,0,0,0,0
				c-1,0-1.8,0.8-1.8,1.8c0,1,0.8,1.9,1.9,1.9c1.2,0,1.9-0.7,1.9-1.9C157.4,2.7,156.7,1.9,155.7,1.9L155.7,1.9z M157.1,7.5h-0.2
				h-2.6h-0.2v0.2v14.5v0.2h0.2h2.6h0.2v-0.2V7.8V7.5L157.1,7.5z"/>
		</g>
		<g>
			<path class="st1" d="M179.3,22.4V14c0-2-0.5-4.4-3.1-4.4c-1.3,0-2.6,1-3,2.3c-0.1,0.4-0.2,0.8-0.2,1.3v9.1h-2.9v-8.8
				c0-2.4-1.1-3.9-2.9-3.9c-2.1,0-3,1.9-3.2,2.5c-0.2,0.4-0.2,0.8-0.2,1.3v8.9h-2.8V11.8c0-1.5,0-2.7-0.1-3.9l0-0.1h2.6l0.1,2.1
				c1-1.6,2.6-2.5,4.6-2.5c1.9,0,3.5,1.1,4.2,2.8c0.5-0.8,1-1.3,1.6-1.8c0.9-0.7,1.9-1,3.3-1c2.3,0,4.9,1.7,4.9,6.4v8.6H179.3z"/>
			<path class="st2" d="M177.2,7.5c1.9,0,4.8,1.3,4.8,6.3v8.5h-2.6v-8.2c0-2.8-1-4.5-3.2-4.5c-1.5,0-2.7,1.1-3.1,2.4
				c-0.1,0.4-0.2,0.8-0.2,1.3v9h-2.6v-8.7c0-2.3-1-4-3-4c-1.7,0-2.8,1.3-3.3,2.6c-0.2,0.4-0.2,0.8-0.2,1.3v8.8h-2.6l0-10.5
				c0-1.5,0-2.7-0.1-3.9h2.3l0.1,2.3h0.1c0.8-1.4,2.2-2.7,4.6-2.7c2,0,3.5,1.2,4.1,2.9h0.1c0.5-0.8,1-1.4,1.6-1.9
				C174.9,7.8,175.8,7.5,177.2,7.5 M177.2,7.2c-1.4,0-2.4,0.3-3.4,1.1c-0.5,0.4-1,1-1.5,1.7c-0.7-1.7-2.3-2.7-4.2-2.7
				c-1.9,0-3.4,0.8-4.5,2.3l-0.1-1.7l0-0.2h-0.2h-2.3h-0.3l0,0.3c0.1,1.2,0.1,2.4,0.1,3.9l0,10.5v0.2h0.2h2.6h0.2v-0.2v-8.8
				c0-0.5,0-0.8,0.2-1.2c0.2-0.6,1.1-2.5,3.1-2.5c1.7,0,2.8,1.4,2.8,3.8v8.7v0.2h0.2h2.6h0.2v-0.2v-9c0-0.5,0.1-0.8,0.2-1.2
				c0.4-1.3,1.6-2.2,2.9-2.2c2,0,2.9,1.4,2.9,4.2v8.2v0.2h0.2h2.6h0.2v-0.2v-8.5C182.3,8.9,179.5,7.2,177.2,7.2L177.2,7.2z"/>
		</g>
		<g>
			<path class="st1" d="M189.6,22.9c-3,0-4.5-2.2-4.5-4.3c0-3.5,3.1-5.5,8.7-5.5v-0.2c0-2.2-1.1-3.3-3.2-3.3c-1.3,0-2.8,0.4-3.7,1.1
				l-0.1,0.1L186,8.8l0.1-0.1c1.3-0.9,3-1.3,4.9-1.3c4.6,0,5.6,3.3,5.6,6v5.4c0,1.3,0.1,2.6,0.2,3.5l0,0.1h-2.7l-0.2-1.7
				C193.2,21.8,191.6,22.9,189.6,22.9z M193.3,15c-2.1,0-5.5,0.4-5.5,3.2c0,1.5,0.9,2.4,2.4,2.4c1.9,0,3-1.2,3.4-2.3
				c0.1-0.3,0.2-0.6,0.2-0.8V15C193.6,15,193.5,15,193.3,15z"/>
			<path class="st2" d="M191,7.6c4.4,0,5.5,3,5.5,5.9v5.4c0,1.3,0.1,2.5,0.2,3.5h-2.4l-0.2-1.8H194c-0.8,1.1-2.4,2.2-4.4,2.2
				c-2.9,0-4.4-2.1-4.4-4.2c0-3.5,3.1-5.4,8.7-5.4v-0.3c0-1.2-0.3-3.4-3.3-3.4c-1.3,0-2.8,0.4-3.8,1.1l-0.6-1.7
				C187.4,8.1,189.1,7.6,191,7.6 M190.2,20.7c1.9,0,3.1-1.2,3.5-2.4c0.1-0.3,0.2-0.6,0.2-0.8v-2.6c-0.2,0-0.4,0-0.6,0
				c-2.7,0-5.6,0.7-5.6,3.3C187.7,19.9,188.8,20.7,190.2,20.7 M191,7.3c-1.9,0-3.6,0.5-4.9,1.3l-0.2,0.1l0.1,0.2l0.6,1.7l0.1,0.3
				l0.3-0.2c0.9-0.6,2.4-1.1,3.7-1.1c2,0,3.1,1.1,3.1,3.1v0.1C188,13,185,15,185,18.6c0,2.2,1.6,4.4,4.6,4.4c1.9,0,3.4-0.9,4.3-1.9
				l0.1,1.3l0,0.2h0.2h2.4h0.3l0-0.3c-0.1-0.9-0.2-2.2-0.2-3.5v-5.4C196.8,10.6,195.8,7.3,191,7.3L191,7.3z M190.2,20.4
				c-1.4,0-2.2-0.8-2.2-2.2c0-2.7,3.4-3.1,5.4-3.1c0.1,0,0.2,0,0.3,0v2.4c0,0.2-0.1,0.5-0.2,0.7C193.1,19.2,192.1,20.4,190.2,20.4
				L190.2,20.4z"/>
		</g>
		<g>
			<rect x="200.6" y="0.9" class="st1" width="2.8" height="21.5"/>
			<path class="st2" d="M203.3,1v21.3h-2.6V1H203.3 M203.6,0.8h-0.2h-2.6h-0.2V1v21.3v0.2h0.2h2.6h0.2v-0.2V1V0.8L203.6,0.8z"/>
		</g>
		<g>
			<path class="st1" d="M218.5,22.7c-1.9,0-4-0.5-5.3-1.3l-0.1,0l0.7-2.3L214,19c1.4,0.8,3.1,1.3,4.6,1.3c2.5,0,4.1-1.3,4.1-3.3
				c0-1.8-1-2.9-3.7-3.9c-3.7-1.3-5.4-3.2-5.4-5.8c0-3.3,2.8-5.6,6.6-5.6c2.4,0,3.9,0.6,4.6,1l0.1,0.1l-0.8,2.3l-0.1-0.1
				c-1.1-0.7-2.4-1-3.7-1c-2.9,0-3.7,1.8-3.7,2.9c0,1.7,1,2.6,3.9,3.8c3.7,1.4,5.3,3.2,5.3,6C225.7,19.5,223.8,22.7,218.5,22.7z"/>
			<path class="st2" d="M220.2,1.8c2.1,0,3.6,0.5,4.5,1L224,4.9c-0.7-0.4-2-1-3.8-1c-2.8,0-3.8,1.7-3.8,3c0,1.9,1.2,2.8,4,3.9
				c3.4,1.3,5.2,3,5.2,5.9c0,3.1-2.3,5.8-7.1,5.8c-2,0-4.1-0.6-5.2-1.3l0.6-2.1c1.2,0.7,2.9,1.3,4.7,1.3c2.7,0,4.2-1.4,4.2-3.4
				c0-1.9-1.1-3-3.8-4c-3.3-1.2-5.3-2.9-5.3-5.7C213.7,4.2,216.3,1.8,220.2,1.8 M220.2,1.6c-3.9,0-6.8,2.4-6.8,5.8
				c0,2.7,1.7,4.6,5.5,5.9c2.6,1,3.6,2,3.6,3.8c0,1.9-1.5,3.1-3.9,3.1c-1.5,0-3.2-0.5-4.6-1.3l-0.3-0.2l-0.1,0.3l-0.6,2.1l-0.1,0.2
				l0.2,0.1c1.2,0.8,3.4,1.3,5.3,1.3c5.4,0,7.4-3.3,7.4-6c0-2.8-1.7-4.7-5.4-6.1c-2.9-1.2-3.8-2-3.8-3.7c0-1,0.7-2.8,3.6-2.8
				c1.3,0,2.6,0.3,3.7,1l0.3,0.2l0.1-0.3l0.7-2.1l0.1-0.2l-0.2-0.1C224.1,2.2,222.6,1.6,220.2,1.6L220.2,1.6z"/>
		</g>
		<g>
			<path class="st1" d="M235.3,22.7c-4.5,0-7.2-2.8-7.2-7.4c0-4.7,2.8-7.9,6.9-7.9c4.8,0,6.1,4.4,6.1,6.9c0,0.3,0,0.6-0.1,0.9
				c0,0.1,0,0.3,0,0.3v0.1h-10.3c0.2,4.2,3.1,4.8,4.9,4.8c1.7,0,2.8-0.2,3.9-0.8l0.1-0.1l0.6,2.2l-0.1,0
				C239.2,22.2,237.6,22.7,235.3,22.7z M238.2,13.5c0-1.1-0.4-4.1-3.6-4.1c-2.5,0-3.6,2.2-3.9,4.1H238.2z"/>
			<path class="st2" d="M235,7.4c4.7,0,6,4.2,6,6.8c0,0.5-0.1,1-0.1,1.2h-10.3v0.1h0c0.1,3.6,2.3,5,5,5c1.9,0,3-0.3,4-0.8l0.5,1.9
				c-0.9,0.4-2.5,0.9-4.8,0.9c-4.5,0-7.1-2.9-7.1-7.3S230.8,7.4,235,7.4 M230.6,13.6h7.7c0-1.7-0.7-4.3-3.7-4.3
				C231.9,9.3,230.8,11.8,230.6,13.6 M235,7.2c-4.2,0-7.1,3.3-7.1,8.1c0,4.7,2.8,7.6,7.4,7.6c2.3,0,4-0.5,4.9-0.9l0.2-0.1l-0.1-0.2
				l-0.5-1.9l-0.1-0.3l-0.3,0.1c-1.1,0.5-2.2,0.8-3.9,0.8c-1.7,0-4.6-0.6-4.7-4.6h10h0.2v-0.2c0-0.1,0-0.2,0-0.3
				c0-0.2,0.1-0.6,0.1-0.9C241.2,11.6,239.9,7.2,235,7.2L235,7.2z M230.9,13.4c0.3-1.8,1.4-3.8,3.7-3.8c3,0,3.4,2.6,3.4,3.8H230.9
				L230.9,13.4z"/>
		</g>
		<g>
			<path class="st1" d="M247.5,22.9c-3,0-4.5-2.2-4.5-4.3c0-3.5,3.1-5.5,8.7-5.5v-0.2c0-2.2-1.1-3.3-3.2-3.3c-1.4,0-2.8,0.4-3.7,1.1
				l-0.1,0.1l-0.7-1.9l0.1-0.1c1.3-0.9,3-1.3,4.9-1.3c4.6,0,5.6,3.3,5.6,6v5.4c0,1.3,0.1,2.6,0.2,3.5l0,0.1h-2.6l-0.2-1.7
				C251.1,21.8,249.5,22.9,247.5,22.9z M251.2,15c-2.5,0-5.4,0.6-5.4,3.2c0,1.5,0.9,2.4,2.4,2.4c1.9,0,3-1.2,3.4-2.3
				c0.1-0.3,0.2-0.6,0.2-0.8l-0.1-2.5C251.5,15,251.4,15,251.2,15z"/>
			<path class="st2" d="M248.9,7.6c4.4,0,5.5,3,5.5,5.9v5.4c0,1.3,0.1,2.5,0.2,3.5c0,0-2.4,0-2.4,0l-0.2-1.8h-0.1
				c-0.8,1.1-2.4,2.2-4.4,2.2c-2.9,0-4.4-2.1-4.4-4.2c0-3.5,3.1-5.4,8.7-5.4v-0.3c0-1.2-0.3-3.4-3.3-3.4c-1.4,0-2.8,0.4-3.8,1.1
				l-0.6-1.7C245.3,8.1,247,7.6,248.9,7.6 M248.2,20.7c1.9,0,3.1-1.2,3.5-2.4c0.1-0.3,0.2-0.6,0.2-0.8l-0.1-2.6c-0.2,0-0.4,0-0.6,0
				c-2.7,0-5.5,0.7-5.5,3.3C245.7,19.9,246.8,20.7,248.2,20.7 M248.9,7.3c-1.9,0-3.6,0.5-4.9,1.3l-0.2,0.1l0.1,0.2l0.6,1.7l0.1,0.3
				l0.3-0.2c1-0.7,2.3-1.1,3.7-1.1c2,0,3.1,1.1,3.1,3.1v0.1c-5.6,0.1-8.7,2.1-8.7,5.6c0,2.2,1.6,4.4,4.6,4.4c1.9,0,3.4-0.9,4.3-1.9
				l0.1,1.3l0,0.2h0.2h2.4h0.3l0-0.3c-0.1-0.9-0.2-2.2-0.2-3.5v-5.4C254.6,10.6,253.7,7.3,248.9,7.3L248.9,7.3z M248.2,20.4
				c-1.4,0-2.2-0.8-2.2-2.2c0-2.5,2.9-3.1,5.3-3.1c0.1,0,0.2,0,0.3,0l0.1,2.4c0,0.1-0.1,0.4-0.2,0.7
				C251.1,19.2,250.1,20.4,248.2,20.4L248.2,20.4z"/>
		</g>
		<g>
			<path class="st1" d="M258.6,22.4l-0.1-10c0-1.7,0-3.2-0.1-4.5l0-0.1h2.6l0.1,2.5c0.8-1.8,2.3-2.9,4-2.9c0.3,0,0.5,0,0.8,0.1
				l0.1,0v2.8l-0.2-0.1c-0.3-0.1-0.5-0.1-0.9-0.1c-1.8,0-3.1,1.3-3.4,3.3c-0.1,0.4-0.1,0.8-0.1,1.2v7.8H258.6z"/>
			<path class="st2" d="M265,7.5c0.3,0,0.5,0,0.8,0.1v2.5c-0.3-0.1-0.5-0.1-0.9-0.1c-1.9,0-3.2,1.4-3.5,3.4
				c-0.1,0.4-0.1,0.8-0.1,1.2v7.7h-2.6l-0.1-9.9c0-1.7,0-3.2-0.1-4.5h2.3l0.1,2.8h0.1C261.7,8.8,263.2,7.5,265,7.5 M265,7.2
				c-1.6,0-3,1-3.9,2.6L261,7.8l0-0.2h-0.2h-2.3h-0.3l0,0.3c0.1,1.3,0.1,2.8,0.1,4.5l0.1,9.9l0,0.2h0.2h2.6h0.2v-0.2v-7.7
				c0-0.4,0-0.8,0.1-1.1c0.3-2,1.5-3.2,3.3-3.2c0.4,0,0.6,0,0.8,0.1l0.3,0.1v-0.3V7.6V7.4l-0.2-0.1C265.5,7.2,265.3,7.2,265,7.2
				L265,7.2z"/>
		</g>
		<g>
			<path class="st1" d="M274.3,22.7c-4.4,0-7.3-3-7.3-7.5c0-4.6,3.3-7.8,7.9-7.8c1.9,0,3.3,0.6,3.8,0.8l0.1,0l-0.7,2.3l-0.1-0.1
				c-0.5-0.3-1.4-0.7-3-0.7c-3.4,0-5,2.7-5,5.4c0,3.2,2,5.3,4.9,5.3c1.4,0,2.4-0.4,3.2-0.7l0.1-0.1l0.6,2.2l-0.1,0
				C277.9,22.3,276.4,22.7,274.3,22.7z"/>
			<path class="st2" d="M274.9,7.5c1.6,0,2.9,0.4,3.7,0.8l-0.6,2c-0.6-0.4-1.6-0.7-3.1-0.7c-3.3,0-5.1,2.5-5.1,5.5
				c0,3.4,2.2,5.4,5,5.4c1.5,0,2.5-0.4,3.2-0.7l0.5,2c-0.7,0.4-2.2,0.8-4.2,0.8c-4.4,0-7.2-3-7.2-7.4
				C267.1,10.6,270.2,7.5,274.9,7.5 M274.9,7.2c-4.7,0-8,3.3-8,7.9c0,4.6,3,7.6,7.5,7.6c2.1,0,3.6-0.4,4.3-0.8l0.2-0.1l0-0.2l-0.5-2
				l-0.1-0.3l-0.3,0.1c-0.8,0.3-1.7,0.7-3.1,0.7c-2.8,0-4.8-2.1-4.8-5.2c0-2.6,1.5-5.2,4.9-5.2c1.6,0,2.5,0.4,3,0.7l0.3,0.2l0.1-0.3
				l0.6-2l0.1-0.2L278.7,8C278.2,7.8,276.8,7.2,274.9,7.2L274.9,7.2z"/>
		</g>
		<g>
			<path class="st1" d="M281.6,22.5V0.9h2.8v8.9c0.4-0.6,1-1.1,1.8-1.7c0.9-0.5,1.8-0.8,2.8-0.8c0.9,0,5.2,0.3,5.2,6.3v8.7h-2.8V14
				c0-1.6-0.4-4.2-3.3-4.2c-1.7,0-3,1.3-3.4,2.5c-0.2,0.4-0.2,0.8-0.2,1.3v8.9H281.6z"/>
			<path class="st2" d="M284.2,1v9.1h0.1c0.4-0.8,1.1-1.4,1.9-1.9s1.7-0.8,2.7-0.8c2,0,5.1,1.2,5.1,6.2v8.6h-2.6v-8.3
				c0-2.3-0.9-4.3-3.4-4.3c-1.7,0-3.1,1.2-3.5,2.6c-0.2,0.4-0.2,0.8-0.2,1.3v8.8h-2.6V1H284.2 M281.7,1h-0.1H281.7 M284.5,0.8h-0.2
				h-2.5h-0.1h-0.1V1v21.3v0.2h0.2h2.6h0.2v-0.2v-8.8c0-0.5,0-0.8,0.2-1.2c0.4-1.2,1.6-2.5,3.3-2.5c2.7,0,3.1,2.5,3.1,4.1v8.3v0.2
				h0.2h2.6h0.2v-0.2v-8.6c0-6.1-4.5-6.4-5.4-6.4c-1,0-1.9,0.3-2.8,0.8c-0.7,0.4-1.2,0.9-1.6,1.4V1V0.8L284.5,0.8z"/>
		</g>
	</g>
	<g class="st0">
		<g>
			<path class="st1" d="M10.5,24.4c-2.7,0-4.8-0.7-6.6-2c-2-1.5-3.3-4.1-3.6-7.1C-0.3,8.8,3.9,4.2,10.9,3.4c0.7-0.1,1.4-0.1,2.1-0.1
				c1.9,0,3.1,0.3,3.7,0.5l0.1,0l-0.6,4l-0.1,0c-1-0.3-2-0.5-3.2-0.5c-0.5,0-1,0-1.6,0.1c-4,0.4-6.3,3.1-5.9,7.1
				c0.4,3.6,2.7,5.8,6,5.8c0.3,0,0.6,0,0.8,0c0.9-0.1,1.8-0.3,2.1-0.4l-0.4-4l-3.1,0.3l-0.4-3.7l7.8-0.8l1.1,10.8l-0.1,0
				c-1.6,0.7-4,1.6-6.6,1.8C11.8,24.3,11.2,24.4,10.5,24.4z"/>
			<path class="st2" d="M13,3.4c1.6,0,2.9,0.2,3.6,0.5L16,7.8c-0.9-0.3-1.9-0.5-3.2-0.5c-0.5,0-1,0-1.6,0.1c-3.8,0.4-6.4,2.8-6,7.2
				c0.4,3.8,2.9,5.9,6.2,5.9c0.3,0,0.6,0,0.8,0c1-0.1,1.9-0.3,2.2-0.5L14,15.8L10.9,16l-0.4-3.5l7.5-0.8l1.1,10.6
				c-1.4,0.6-3.9,1.6-6.6,1.8c-0.7,0.1-1.3,0.1-2,0.1c-2.7,0-4.8-0.7-6.5-2c-2-1.5-3.3-4.1-3.6-7c-0.6-6.7,3.9-11,10.5-11.7
				C11.6,3.5,12.3,3.4,13,3.4 M13,3.2c-0.7,0-1.4,0-2.1,0.1C3.8,4.1-0.4,8.8,0.2,15.3c0.3,3,1.7,5.7,3.7,7.2c1.8,1.4,4,2.1,6.7,2.1
				c0.6,0,1.3,0,2-0.1c2.6-0.2,5.1-1.1,6.7-1.8l0.2-0.1l0-0.2l-1.1-10.6l0-0.2l-0.2,0l-7.5,0.8l-0.3,0l0,0.3l0.4,3.5l0,0.2l0.2,0
				l2.9-0.3l0.4,3.8c-0.3,0.1-1,0.3-2,0.4c-0.3,0-0.6,0-0.8,0c-3.3,0-5.6-2.2-5.9-5.7C5.1,10.6,7.3,8,11.2,7.6
				c0.6-0.1,1.1-0.1,1.6-0.1C14,7.5,15,7.7,15.9,8l0.3,0.1l0-0.3L16.8,4l0-0.2l-0.2-0.1C16.1,3.5,14.9,3.2,13,3.2L13,3.2z"/>
		</g>
		<g>
			<polygon class="st1" points="20.6,2.6 25.4,2.1 27.5,22.5 22.7,23 			"/>
			<path class="st2" d="M25.3,2.2l2.1,20.1l-4.6,0.5L20.7,2.8L25.3,2.2 M25.5,2l-0.2,0l-4.6,0.5l-0.2,0l0,0.2l2.1,20.1l0,0.2l0.2,0
				l4.6-0.5l0.2,0l0-0.2L25.5,2.2L25.5,2L25.5,2z"/>
		</g>
		<g>
			<polygon class="st1" points="29.1,1.7 41.6,0.4 42,4.4 34.3,5.2 34.8,9.5 42,8.8 42.4,12.8 35.1,13.6 35.9,21.7 31.1,22.2 			"/>
			<path class="st2" d="M41.5,0.5l0.4,3.7L34.2,5l0.5,4.6l7.2-0.7l0.4,3.7L35,13.4l0.8,8.1L31.2,22l-2-20.2L41.5,0.5 M41.7,0.3
				l-0.2,0L29.2,1.6l-0.2,0l0,0.2l2,20.2l0,0.3l0.3,0l4.6-0.5l0.2,0l0-0.2l-0.8-7.9l7.1-0.8l0.2,0l0-0.2l-0.4-3.7l0-0.2l-0.2,0
				l-7,0.7l-0.4-4.1l7.5-0.8l0.2,0l0-0.2l-0.4-3.7L41.7,0.3L41.7,0.3z"/>
		</g>
	</g>
</g>
<g class="st3">
	<g class="st0">
		<linearGradient id="SVGID_1_" gradientUnits="userSpaceOnUse" x1="49.05" y1="22.65" x2="49.05" y2="3.65">
			<stop  offset="0.4317" style="stop-color:#FFFFFF;stop-opacity:0"/>
			<stop  offset="0.5785" style="stop-color:#FFFFFF"/>
		</linearGradient>
		<path class="st4" d="M49.5,3.7v4.2h3.8v2h-3.8v7.8c0,1.8,0.5,2.8,2,2.8c0.7,0,1.2-0.1,1.5-0.2l0.1,2c-0.5,0.2-1.3,0.4-2.3,0.4
			c-1.2,0-2.2-0.4-2.8-1.1c-0.8-0.8-1-2.1-1-3.8v-8h-2.2v-2H47V4.3L49.5,3.7z"/>
		<linearGradient id="SVGID_2_" gradientUnits="userSpaceOnUse" x1="60.95" y1="22.65" x2="60.95" y2="7.45">
			<stop  offset="0.4317" style="stop-color:#FFFFFF;stop-opacity:0"/>
			<stop  offset="0.5785" style="stop-color:#FFFFFF"/>
		</linearGradient>
		<path class="st5" d="M64.3,22.4L64,20.5l0,0c-0.8,1.1-2.4,2.2-4.4,2.2c-2.9,0-4.4-2.1-4.4-4.2c0-3.5,3.1-5.4,8.7-5.4v-0.3
			c0-1.2-0.3-3.4-3.3-3.4c-1.3,0-2.8,0.4-3.8,1.1l-0.6-1.7C57.4,8,59.1,7.5,61,7.5c4.4,0,5.5,3,5.5,5.9v5.4c0,1.3,0.1,2.5,0.2,3.5
			h-2.4C64.3,22.2,64.3,22.4,64.3,22.4z M63.9,14.9c-2.9-0.1-6.1,0.5-6.1,3.3c0,1.7,1.1,2.5,2.5,2.5c1.9,0,3.1-1.2,3.5-2.4
			c0.1-0.3,0.2-0.6,0.2-0.8L63.9,14.9L63.9,14.9z"/>
		<linearGradient id="SVGID_3_" gradientUnits="userSpaceOnUse" x1="74.45" y1="22.65" x2="74.45" y2="7.35">
			<stop  offset="0.4317" style="stop-color:#FFFFFF;stop-opacity:0"/>
			<stop  offset="0.5785" style="stop-color:#FFFFFF"/>
		</linearGradient>
		<path class="st6" d="M70.3,19.6c0.8,0.5,2.2,1,3.5,1c1.9,0,2.8-1,2.8-2.2c0-1.3-0.8-2-2.7-2.7c-2.6-0.9-3.8-2.4-3.8-4.1
			c0-2.3,1.9-4.3,5-4.3c1.5,0,2.8,0.4,3.6,0.9l-0.7,2c-0.6-0.4-1.6-0.8-3-0.8c-1.6,0-2.4,0.9-2.4,2c0,1.2,0.9,1.7,2.8,2.5
			c2.5,1,3.8,2.2,3.8,4.4c0,2.5-2,4.3-5.4,4.3c-1.6,0-3.1-0.4-4.1-1L70.3,19.6z"/>
		<linearGradient id="SVGID_4_" gradientUnits="userSpaceOnUse" x1="85.25" y1="22.65" x2="85.25" y2="3.65">
			<stop  offset="0.4317" style="stop-color:#FFFFFF;stop-opacity:0"/>
			<stop  offset="0.5785" style="stop-color:#FFFFFF"/>
		</linearGradient>
		<path class="st7" d="M85.7,3.7v4.2h3.8v2h-3.8v7.8c0,1.8,0.5,2.8,2,2.8c0.7,0,1.2-0.1,1.5-0.2l0.1,2c-0.5,0.2-1.3,0.4-2.3,0.4
			c-1.2,0-2.2-0.4-2.8-1.1c-0.8-0.8-1-2.1-1-3.8v-8H81v-2h2.2V4.3L85.7,3.7z"/>
		<linearGradient id="SVGID_5_" gradientUnits="userSpaceOnUse" x1="93.75" y1="22.35" x2="93.75" y2="2.1405">
			<stop  offset="0.4317" style="stop-color:#FFFFFF;stop-opacity:0"/>
			<stop  offset="0.5785" style="stop-color:#FFFFFF"/>
		</linearGradient>
		<path class="st8" d="M95.4,3.8c0,0.9-0.6,1.6-1.7,1.6c-0.9,0-1.6-0.7-1.6-1.6s0.7-1.6,1.6-1.6C94.8,2,95.4,2.8,95.4,3.8z
			 M92.5,22.4V7.8h2.6v14.5h-2.6V22.4z"/>
		<linearGradient id="SVGID_6_" gradientUnits="userSpaceOnUse" x1="104.25" y1="22.55" x2="104.25" y2="7.45">
			<stop  offset="0.4317" style="stop-color:#FFFFFF;stop-opacity:0"/>
			<stop  offset="0.5785" style="stop-color:#FFFFFF"/>
		</linearGradient>
		<path class="st9" d="M109.9,21.8c-0.7,0.4-2.2,0.8-4.2,0.8c-4.4,0-7.2-3-7.2-7.4c0-4.5,3.1-7.7,7.8-7.7c1.6,0,2.9,0.4,3.7,0.8
			l-0.6,2c-0.6-0.4-1.6-0.7-3.1-0.7c-3.3,0-5.1,2.5-5.1,5.5c0,3.4,2.2,5.4,5,5.4c1.5,0,2.5-0.4,3.2-0.7L109.9,21.8z"/>
		<linearGradient id="SVGID_7_" gradientUnits="userSpaceOnUse" x1="126.35" y1="22.35" x2="126.35" y2="2.15">
			<stop  offset="0.4317" style="stop-color:#FFFFFF;stop-opacity:0"/>
			<stop  offset="0.5785" style="stop-color:#FFFFFF"/>
		</linearGradient>
		<path class="st10" d="M122.7,15.9l-2.1,6.4h-2.7l6.9-20.2h3.1l6.9,20.2H132l-2.2-6.4C129.8,15.9,122.7,15.9,122.7,15.9z
			 M129.3,13.9l-2-5.8c-0.5-1.3-0.8-2.5-1.1-3.7h-0.1c-0.3,1.2-0.6,2.4-1,3.7l-2,5.8H129.3z"/>
		<linearGradient id="SVGID_8_" gradientUnits="userSpaceOnUse" x1="143.7" y1="22.45" x2="143.7" y2="7.55">
			<stop  offset="0.4317" style="stop-color:#FFFFFF;stop-opacity:0"/>
			<stop  offset="0.5785" style="stop-color:#FFFFFF"/>
		</linearGradient>
		<path class="st11" d="M137.6,11.8c0-1.5,0-2.7-0.1-3.9h2.3l0.1,2.4h0.1c0.7-1.4,2.4-2.7,4.8-2.7c2,0,5.1,1.2,5.1,6.2v8.7h-2.6
			v-8.4c0-2.3-0.9-4.3-3.4-4.3c-1.7,0-3.1,1.2-3.5,2.7c-0.1,0.3-0.2,0.8-0.2,1.2v8.7h-2.6L137.6,11.8L137.6,11.8z"/>
		<linearGradient id="SVGID_9_" gradientUnits="userSpaceOnUse" x1="155.55" y1="22.35" x2="155.55" y2="2.1405">
			<stop  offset="0.4317" style="stop-color:#FFFFFF;stop-opacity:0"/>
			<stop  offset="0.5785" style="stop-color:#FFFFFF"/>
		</linearGradient>
		<path class="st12" d="M157.2,3.8c0,0.9-0.6,1.6-1.7,1.6c-0.9,0-1.6-0.7-1.6-1.6s0.7-1.6,1.6-1.6C156.5,2,157.2,2.8,157.2,3.8z
			 M154.2,22.4V7.8h2.6v14.5h-2.6V22.4z"/>
		<linearGradient id="SVGID_10_" gradientUnits="userSpaceOnUse" x1="171.55" y1="22.25" x2="171.55" y2="7.45">
			<stop  offset="0.4317" style="stop-color:#FFFFFF;stop-opacity:0"/>
			<stop  offset="0.5785" style="stop-color:#FFFFFF"/>
		</linearGradient>
		<path class="st13" d="M161.2,11.8c0-1.5,0-2.7-0.1-3.9h2.3l0.1,2.3h0.1c0.8-1.4,2.2-2.7,4.6-2.7c2,0,3.5,1.2,4.1,2.9h0.1
			c0.5-0.8,1-1.4,1.6-1.9c0.9-0.7,1.8-1,3.2-1c1.9,0,4.8,1.3,4.8,6.3v8.5h-2.6v-8.2c0-2.8-1-4.5-3.2-4.5c-1.5,0-2.7,1.1-3.1,2.4
			c-0.1,0.4-0.2,0.8-0.2,1.3v9h-2.6v-8.7c0-2.3-1-4-3-4c-1.7,0-2.8,1.3-3.3,2.6c-0.2,0.4-0.2,0.8-0.2,1.3v8.8h-2.6L161.2,11.8
			L161.2,11.8z"/>
		<linearGradient id="SVGID_11_" gradientUnits="userSpaceOnUse" x1="190.95" y1="22.75" x2="190.95" y2="7.55">
			<stop  offset="0.4317" style="stop-color:#FFFFFF;stop-opacity:0"/>
			<stop  offset="0.5785" style="stop-color:#FFFFFF"/>
		</linearGradient>
		<path class="st14" d="M194.3,22.4l-0.2-1.8H194c-0.8,1.1-2.4,2.2-4.4,2.2c-2.9,0-4.4-2.1-4.4-4.2c0-3.5,3.1-5.4,8.7-5.4v-0.3
			c0-1.2-0.3-3.4-3.3-3.4c-1.3,0-2.8,0.4-3.8,1.1l-0.6-1.7c1.2-0.8,2.9-1.3,4.8-1.3c4.4,0,5.5,3,5.5,5.9v5.4c0,1.3,0.1,2.5,0.2,3.5
			C196.7,22.4,194.3,22.4,194.3,22.4z M193.9,14.9c-2.9-0.1-6.2,0.5-6.2,3.3c0,1.7,1.1,2.5,2.5,2.5c1.9,0,3.1-1.2,3.5-2.4
			c0.1-0.3,0.2-0.6,0.2-0.8V14.9z"/>
		<linearGradient id="SVGID_12_" gradientUnits="userSpaceOnUse" x1="202" y1="22.35" x2="202" y2="1.05">
			<stop  offset="0.4317" style="stop-color:#FFFFFF;stop-opacity:0"/>
			<stop  offset="0.5785" style="stop-color:#FFFFFF"/>
		</linearGradient>
		<path class="st15" d="M200.7,1h2.6v21.3h-2.6V1z"/>
		<linearGradient id="SVGID_13_" gradientUnits="userSpaceOnUse" x1="219.45" y1="22.55" x2="219.45" y2="1.85">
			<stop  offset="0.4317" style="stop-color:#FFFFFF;stop-opacity:0"/>
			<stop  offset="0.5785" style="stop-color:#FFFFFF"/>
		</linearGradient>
		<path class="st16" d="M213.9,19.1c1.2,0.7,2.9,1.3,4.7,1.3c2.7,0,4.2-1.4,4.2-3.4c0-1.9-1.1-3-3.8-4c-3.3-1.2-5.3-2.9-5.3-5.7
			c0-3.1,2.6-5.5,6.5-5.5c2.1,0,3.6,0.5,4.5,1L224,4.9c-0.7-0.4-2-1-3.8-1c-2.8,0-3.8,1.7-3.8,3c0,1.9,1.2,2.8,4,3.9
			c3.4,1.3,5.2,3,5.2,5.9c0,3.1-2.3,5.8-7.1,5.8c-2,0-4.1-0.6-5.2-1.3L213.9,19.1z"/>
		<linearGradient id="SVGID_14_" gradientUnits="userSpaceOnUse" x1="234.6" y1="22.55" x2="234.6" y2="7.45">
			<stop  offset="0.4317" style="stop-color:#FFFFFF;stop-opacity:0"/>
			<stop  offset="0.5785" style="stop-color:#FFFFFF"/>
		</linearGradient>
		<path class="st17" d="M230.6,15.6c0.1,3.6,2.3,5,5,5c1.9,0,3-0.3,4-0.8l0.5,1.9c-0.9,0.4-2.5,0.9-4.8,0.9c-4.5,0-7.1-2.9-7.1-7.3
			s2.6-7.8,6.8-7.8c4.7,0,6,4.2,6,6.8c0,0.5-0.1,1-0.1,1.2h-10.3L230.6,15.6L230.6,15.6z M238.3,13.6c0-1.7-0.7-4.3-3.7-4.3
			c-2.7,0-3.8,2.5-4,4.3H238.3z"/>
		<linearGradient id="SVGID_15_" gradientUnits="userSpaceOnUse" x1="248.85" y1="22.75" x2="248.85" y2="7.55">
			<stop  offset="0.4317" style="stop-color:#FFFFFF;stop-opacity:0"/>
			<stop  offset="0.5785" style="stop-color:#FFFFFF"/>
		</linearGradient>
		<path class="st18" d="M252.2,22.4l-0.2-1.8h-0.1c-0.8,1.1-2.4,2.2-4.4,2.2c-2.9,0-4.4-2.1-4.4-4.2c0-3.5,3.1-5.4,8.7-5.4v-0.3
			c0-1.2-0.3-3.4-3.3-3.4c-1.4,0-2.8,0.4-3.8,1.1l-0.6-1.7c1.2-0.8,2.9-1.3,4.8-1.3c4.4,0,5.5,3,5.5,5.9v5.4c0,1.3,0.1,2.5,0.2,3.5
			C254.6,22.4,252.2,22.4,252.2,22.4z M251.8,14.9c-2.9-0.1-6.1,0.5-6.1,3.3c0,1.7,1.1,2.5,2.5,2.5c1.9,0,3.1-1.2,3.5-2.4
			c0.1-0.3,0.2-0.6,0.2-0.8L251.8,14.9L251.8,14.9z"/>
		<linearGradient id="SVGID_16_" gradientUnits="userSpaceOnUse" x1="262.15" y1="22.25" x2="262.15" y2="7.45">
			<stop  offset="0.4317" style="stop-color:#FFFFFF;stop-opacity:0"/>
			<stop  offset="0.5785" style="stop-color:#FFFFFF"/>
		</linearGradient>
		<path class="st19" d="M258.6,12.4c0-1.7,0-3.2-0.1-4.5h2.3l0.1,2.8h0.1c0.7-1.9,2.2-3.2,4-3.2c0.3,0,0.5,0,0.8,0.1v2.5
			c-0.3-0.1-0.5-0.1-0.9-0.1c-1.9,0-3.2,1.4-3.5,3.4c-0.1,0.4-0.1,0.8-0.1,1.2v7.7h-2.6L258.6,12.4L258.6,12.4z"/>
		<linearGradient id="SVGID_17_" gradientUnits="userSpaceOnUse" x1="272.85" y1="22.55" x2="272.85" y2="7.45">
			<stop  offset="0.4317" style="stop-color:#FFFFFF;stop-opacity:0"/>
			<stop  offset="0.5785" style="stop-color:#FFFFFF"/>
		</linearGradient>
		<path class="st20" d="M278.5,21.8c-0.7,0.4-2.2,0.8-4.2,0.8c-4.4,0-7.2-3-7.2-7.4c0-4.5,3.1-7.7,7.8-7.7c1.6,0,2.9,0.4,3.7,0.8
			l-0.6,2c-0.6-0.4-1.6-0.7-3.1-0.7c-3.3,0-5.1,2.5-5.1,5.5c0,3.4,2.2,5.4,5,5.4c1.5,0,2.5-0.4,3.2-0.7L278.5,21.8z"/>
		<linearGradient id="SVGID_18_" gradientUnits="userSpaceOnUse" x1="287.8" y1="22.35" x2="287.8" y2="1.05">
			<stop  offset="0.4317" style="stop-color:#FFFFFF;stop-opacity:0"/>
			<stop  offset="0.5785" style="stop-color:#FFFFFF"/>
		</linearGradient>
		<path class="st21" d="M281.6,1h2.6v9.1h0.1c0.4-0.8,1.1-1.4,1.9-1.9s1.7-0.8,2.7-0.8c2,0,5.1,1.2,5.1,6.2v8.6h-2.6v-8.3
			c0-2.3-0.9-4.3-3.4-4.3c-1.7,0-3.1,1.2-3.5,2.6c-0.2,0.4-0.2,0.8-0.2,1.3v8.8h-2.6V1H281.6z"/>
	</g>
	<g class="st0">
		<linearGradient id="SVGID_19_" gradientUnits="userSpaceOnUse" x1="9.7232" y1="24.2603" x2="9.7232" y2="3.4281">
			<stop  offset="0.4317" style="stop-color:#FFFFFF;stop-opacity:0"/>
			<stop  offset="0.5785" style="stop-color:#FFFFFF"/>
		</linearGradient>
		<path class="st22" d="M19.1,22.4c-1.4,0.6-3.9,1.6-6.6,1.8c-3.7,0.4-6.4-0.3-8.5-1.9c-2-1.5-3.3-4.1-3.6-7
			c-0.6-6.7,3.9-11,10.5-11.7c2.6-0.3,4.6,0,5.7,0.4L16,7.8c-1.2-0.4-2.6-0.6-4.8-0.4c-3.8,0.4-6.4,2.8-6,7.2c0.4,4.1,3.3,6.3,7,5.9
			c1-0.1,1.9-0.3,2.2-0.5L14,15.8L10.9,16l-0.4-3.5l7.5-0.8L19.1,22.4z"/>
		<linearGradient id="SVGID_20_" gradientUnits="userSpaceOnUse" x1="24.05" y1="22.85" x2="24.05" y2="2.25">
			<stop  offset="0.4317" style="stop-color:#FFFFFF;stop-opacity:0"/>
			<stop  offset="0.5785" style="stop-color:#FFFFFF"/>
		</linearGradient>
		<path class="st23" d="M25.3,2.2l2.1,20.1l-4.6,0.5L20.7,2.8L25.3,2.2z"/>
		<linearGradient id="SVGID_21_" gradientUnits="userSpaceOnUse" x1="35.75" y1="22.05" x2="35.75" y2="0.55">
			<stop  offset="0.4317" style="stop-color:#FFFFFF;stop-opacity:0"/>
			<stop  offset="0.5785" style="stop-color:#FFFFFF"/>
		</linearGradient>
		<path class="st24" d="M29.2,1.9l12.3-1.3l0.4,3.7l-7.7,0.8l0.5,4.6l7.2-0.7l0.4,3.7L35,13.4l0.8,8.1L31.2,22L29.2,1.9z"/>
	</g>
</g>
</svg>
